<?xml version="1.0" standalone="no"?>
<!DOCTYPE svg PUBLIC "-//W3C//DTD SVG 20010904//EN"
 "http://www.w3.org/TR/2001/REC-SVG-20010904/DTD/svg10.dtd">
<svg version="1.0" xmlns="http://www.w3.org/2000/svg"
 width="700.000000pt" height="700.000000pt" viewBox="0 0 700.000000 700.000000"
 preserveAspectRatio="xMidYMid meet">
<metadata>
Created by potrace 1.11, written by Peter Selinger 2001-2013
</metadata>
<g transform="translate(0.000000,700.000000) scale(0.100000,-0.100000)"
fill="#000000" stroke="none">
<path d="M3278 6995 c-1 -1 -41 -6 -87 -9 -123 -10 -263 -31 -432 -66 -142
-28 -373 -98 -509 -152 -41 -17 -88 -35 -105 -41 -56 -21 -420 -208 -423 -218
-2 -5 -8 -9 -14 -9 -14 0 -195 -119 -293 -193 -194 -147 -384 -322 -527 -486
-125 -143 -137 -157 -168 -201 -13 -19 -27 -37 -30 -40 -4 -3 -40 -54 -82
-115 -281 -411 -489 -930 -562 -1400 -2 -16 -8 -50 -12 -75 -21 -131 -29 -273
-29 -495 1 -194 7 -327 20 -406 2 -13 6 -46 10 -74 11 -88 16 -118 40 -230
114 -532 330 -996 669 -1435 93 -120 161 -196 296 -330 440 -437 970 -742
1570 -904 108 -29 318 -72 400 -82 30 -3 66 -8 80 -10 183 -27 649 -25 840 2
538 78 952 225 1408 499 257 155 589 438 803 685 332 383 578 833 719 1316 43
148 95 389 106 494 3 36 8 68 10 71 24 42 23 790 -1 829 -2 3 -6 30 -9 60 -3
30 -8 64 -10 75 -2 11 -11 61 -20 110 -73 393 -249 838 -476 1195 -455 718
-1151 1249 -1960 1493 -123 38 -283 76 -377 91 -33 5 -116 19 -123 21 -3 1
-41 5 -85 10 -44 4 -89 10 -100 12 -25 4 -532 13 -537 8z m582 -860 c58 -9
121 -18 140 -21 71 -11 303 -75 413 -115 158 -57 391 -174 535 -268 67 -44
128 -85 135 -90 127 -102 232 -194 316 -280 425 -435 684 -986 748 -1591 15
-142 8 -531 -11 -625 -2 -11 -7 -42 -10 -70 -4 -27 -18 -101 -32 -163 -246
-1104 -1193 -1943 -2324 -2059 -145 -15 -505 -8 -630 11 -14 2 -43 7 -65 10
-335 50 -725 200 -1020 393 -182 119 -291 209 -451 369 -138 139 -311 362
-395 511 -55 96 -130 243 -149 293 -12 30 -28 69 -35 85 -42 93 -123 372 -139
480 -4 22 -8 47 -11 55 -2 8 -6 35 -9 60 -3 25 -9 72 -13 105 -9 79 -10 429
-1 530 68 739 462 1435 1063 1880 116 85 204 143 295 192 30 16 64 35 75 41
121 71 488 204 630 228 17 2 37 7 45 9 15 4 24 6 110 20 25 4 52 9 61 10 9 2
52 6 95 10 43 4 81 9 82 10 12 11 461 -5 552 -20z"/>
<path d="M2345 5285 l175 -175 -736 -736 -737 -736 6 -172 c3 -94 8 -182 11
-196 3 -13 8 -42 12 -65 13 -93 53 -261 100 -421 l15 -53 925 925 c508 508
927 924 930 924 3 0 73 -67 155 -150 82 -82 152 -150 154 -150 3 0 5 266 5
590 l0 590 -595 0 -596 0 176 -175z"/>
<path d="M3890 5073 c0 -2 77 -79 170 -173 94 -93 170 -172 170 -174 0 -3
-606 -610 -1346 -1351 l-1345 -1345 75 -88 c84 -97 245 -257 348 -346 l67 -57
1331 1330 1330 1331 108 -87 c59 -48 109 -90 112 -93 11 -13 160 -131 161
-128 1 2 2 267 3 591 1 388 -2 587 -9 588 -19 3 -1175 4 -1175 2z"/>
<path d="M4285 3389 c-2 -3 72 -81 166 -175 l169 -169 -927 -927 -926 -926 44
-12 c125 -34 229 -55 369 -74 87 -12 195 -19 320 -21 l135 -2 737 736 738 736
175 -175 175 -175 -2 595 -3 595 -583 0 c-321 0 -585 -2 -587 -6z"/>
</g>
</svg>
