<?xml version="1.0" encoding="utf-8"?>
<!-- Generator: Adobe Illustrator 23.1.1, SVG Export Plug-In . SVG Version: 6.00 Build 0)  -->
<svg version="1.1" id="Lager_1" xmlns="http://www.w3.org/2000/svg" xmlns:xlink="http://www.w3.org/1999/xlink" x="0px" y="0px"
	 viewBox="0 0 115.1 20" style="enable-background:new 0 0 115.1 20;" xml:space="preserve">
<g>
	<path d="M0,18.1c1.5,0,2.1-0.7,2.1-2.3V4.2c0-1.6-0.5-2.3-2.1-2.3V0.3h8.6c4.7,0,7.8,2.1,7.8,5.8c0,3.4-2.8,5.8-7.9,5.8H7.1v3.8
		c0,1.8,0.9,2.3,3.4,2.3v1.6H0V18.1z M7.1,1.8v8.7h0.8c2.4,0,3.7-1.8,3.7-4.4c0-2.7-1.3-4.3-3.8-4.3C7.8,1.8,7.1,1.8,7.1,1.8z"/>
	<path d="M16.6,18.1c1.4,0,1.9-0.6,1.9-2.1v-5.4c0-0.8-0.6-1.3-1.4-1.2h-0.5V7.7l5.3-1.6h1.3v9.8c0,1.5,0.5,2.1,1.9,2.1v1.6h-8.6
		v-1.5H16.6z M20.9,0.5c1.4,0,2.6,1.2,2.6,2.6s-1.2,2.6-2.6,2.6s-2.6-1.2-2.6-2.6S19.4,0.5,20.9,0.5"/>
	<path d="M26.4,8.7h-1.8V7.6c2.1-0.6,4.7-2.3,5.5-4.8h1V7h3.3v1.7h-3.3v6.5c0,1.6,0.9,2.1,1.8,2.1c0.6,0,1.3-0.2,1.7-0.5l0.5,0.9
		C34.3,19,32.4,20,30.5,20c-2.8,0-4.1-1.7-4.1-4.5V8.7z"/>
	<path d="M41.9,6.1c1.8,0,3.4,0.5,4.9,1.3L45.1,12H44c-0.3-2.8-1.6-3.9-3-3.9c-1.7,0-2.7,1.5-2.7,3.5c0,3,2.1,4.5,4.3,4.5
		c1.7,0,2.6-0.7,3.2-2l1,0.4c-0.6,3.1-2,5.5-5.8,5.5c-3.5,0-6-2.5-6-6.4C35.1,9,37.8,6.1,41.9,6.1"/>
	<path d="M46.4,18.1c1.4,0,1.9-0.6,1.9-2.1V4.4c0-0.8-0.6-1.2-1.4-1.2h-0.6V1.4L52,0h1v8.9c0.7-1.9,2.1-2.8,4-2.8
		c2.5,0,4.2,1.4,4.2,4.3v5.5c0,1.5,0.5,2.1,1.9,2.1v1.6h-7.9V18c1.2,0,1.2-0.7,1.2-2v-5.5c0-1.2-0.6-1.8-1.7-1.8
		c-0.9,0-1.6,0.6-1.8,1.5V16c0,1.3,0.1,2,1.2,2v1.6h-7.9v-1.5H46.4z"/>
	<path d="M63.9,18.1c1.4,0,1.9-0.6,1.9-2.1V8.7h-1.9V7.6c1.5,0,2-0.4,2-1.5c0-2.6,2.3-6.1,7-6.1c1.5,0,3.1,0.5,4.5,1.1l-2,5l-1-0.2
		c0.1-2.7-0.8-4.4-2.4-4.4c-1.3,0-2,1.1-2,2.5c0,1.2,0.3,2.2,0.5,3h2.8v1.7h-2.7v7.2c0,1.5,0.5,2.1,1.9,2.1v1.6h-8.6
		C63.9,19.6,63.9,18.1,63.9,18.1z"/>
	<path d="M98.3,18.1c1.4,0,1.9-0.6,1.9-2.1V4.4c0-0.8-0.6-1.2-1.4-1.2h-0.6V1.4L104,0h1v12.2h0.2l2.3-1.1c1.1-0.5,1.3-1,1.3-1.7
		c0-0.9-0.7-1.4-1.8-1.4V6.4h7v1.4c-1.5,1.8-2.9,2.5-4.5,3.3l3.1,4.2c1,1.3,1.6,2.7,2.6,2.7v1.6h-5.9l-4.1-6.6H105v3.3
		c0,1.1,0.1,1.6,1.2,1.6v1.6h-7.9C98.3,19.5,98.3,18.1,98.3,18.1z"/>
</g>
<g>
	<path d="M77.8,18.2l-2-1.4l2.8-3.4l-3.8-1l0.7-2.1l3.6,1.5l-0.3-4h2.3l-0.3,4l3.7-1.5l0.7,2.1l-3.8,1l2.8,3.4l-2,1.4L80,14.5
		L77.8,18.2z"/>
</g>
<g>
	<path d="M90.2,18.2l-2-1.4l2.8-3.4l-3.8-1l0.7-2.1l3.6,1.5l-0.3-4h2.3l-0.3,4l3.7-1.5l0.7,2.1l-3.8,1l2.8,3.4l-2,1.4l-2.2-3.7
		L90.2,18.2z"/>
</g>
</svg>
